<?xml version="1.0" encoding="UTF-8" standalone="no"?>
<!-- Created with Bouml (http://bouml.free.fr/) -->
<!DOCTYPE svg PUBLIC "-//W3C//DTD SVG 1.1//EN" "http://www.w3.org/Graphics/SVG/1.1/DTD/svg11.dtd">
<svg width="870" height="769" version="1.1" xmlns="http://www.w3.org/2000/svg">
<g>
	<polygon fill="#ffffff" stroke="black" stroke-opacity="1" points="14,216 238,216 238,227 226,239 14,239 14,216" />
	<rect fill="none" stroke="black" stroke-width="1" stroke-opacity="1" x="14" y="216" width="836" height="142" />
	<text font-family="MS Shell Dlg" font-size="12" fill="#000000" xml:space="preserve" text-anchor="middle" x="120" y="234">tant qu'il y a des activités à affecter</text>
	<line stroke="black" stroke-opacity="1" x1="14" y1="239" x2="226" y2="239" />
	<line stroke="black" stroke-opacity="1" x1="226" y1="239" x2="238" y2="227" />
	<line stroke="black" stroke-opacity="1" x1="238" y1="227" x2="238" y2="216" />
</g>
<g>
	<line stroke="black" stroke-dasharray="18,6"  stroke-opacity="1" x1="720" y1="46" x2="720" y2="769" />
</g>
<g>
	<rect fill="#808080" stroke="none" stroke-opacity="1" x="828" y="8" width="3" height="22" />
	<rect fill="#808080" stroke="none" stroke-opacity="1" x="774" y="27" width="57" height="3" />
	<rect fill="#ffffc0" stroke="black" stroke-width="1" stroke-opacity="1" x="770" y="4" width="58" height="23" />
	<text font-family="MS Shell Dlg" font-size="12" fill="#000000" xml:space="preserve" text-decoration="underline" text-anchor="middle" x="799" y="22">:Agenda</text>
</g>
<g>
	<line stroke="black" stroke-dasharray="18,6"  stroke-opacity="1" x1="801" y1="45" x2="801" y2="769" />
</g>
<g>
	<ellipse fill="none" stroke="black" stroke-width="1" stroke-opacity="1" cx="204" cy="9" rx="3" ry="3" />
	<line stroke="black" stroke-opacity="1" x1="199" y1="15" x2="210" y2="15" />
	<line stroke="black" stroke-opacity="1" x1="204" y1="12" x2="204" y2="20" />
	<line stroke="black" stroke-opacity="1" x1="204" y1="20" x2="199" y2="25" />
	<line stroke="black" stroke-opacity="1" x1="204" y1="20" x2="209" y2="25" />
	<text font-family="MS Shell Dlg" font-size="12" fill="#000000" xml:space="preserve" text-anchor="middle" x="205" y="42">:Utilisateur</text>
</g>
<g>
	<polygon fill="#c0ffff" stroke="black" stroke-opacity="1" points="88,250 186,250 186,260 196,260 196,342 88,342 88,250" />
	<line stroke="black" stroke-opacity="1" x1="186" y1="250" x2="196" y2="260" />
	<text font-family="MS Shell Dlg" font-size="12" fill="#000000" xml:space="preserve" x="98" y="276">Sélection</text>
	<text font-family="MS Shell Dlg" font-size="12" fill="#000000" xml:space="preserve" x="98" y="292">d'une plage</text>
	<text font-family="MS Shell Dlg" font-size="12" fill="#000000" xml:space="preserve" x="98" y="308">libre pour un</text>
	<text font-family="MS Shell Dlg" font-size="12" fill="#000000" xml:space="preserve" x="98" y="324">agent</text>
</g>
<g>
	<line stroke="black" stroke-dasharray="18,6"  stroke-opacity="1" x1="384" y1="45" x2="384" y2="769" />
</g>
<g>
	<rect fill="#808080" stroke="none" stroke-opacity="1" x="405" y="8" width="3" height="22" />
	<rect fill="#808080" stroke="none" stroke-opacity="1" x="364" y="27" width="44" height="3" />
	<rect fill="#ffffc0" stroke="black" stroke-width="1" stroke-opacity="1" x="360" y="4" width="45" height="23" />
	<text font-family="MS Shell Dlg" font-size="12" fill="#000000" xml:space="preserve" text-decoration="underline" text-anchor="middle" x="383" y="22">:IHM</text>
</g>
<g>
	<line stroke="black" stroke-dasharray="18,6"  stroke-opacity="1" x1="204" y1="47" x2="204" y2="769" />
</g>
<g>
	<rect fill="#808080" stroke="none" stroke-opacity="1" x="620" y="9" width="3" height="22" />
	<rect fill="#808080" stroke="none" stroke-opacity="1" x="579" y="28" width="44" height="3" />
	<rect fill="#ffffc0" stroke="black" stroke-width="1" stroke-opacity="1" x="575" y="5" width="45" height="23" />
	<text font-family="MS Shell Dlg" font-size="12" fill="#000000" xml:space="preserve" text-decoration="underline" text-anchor="middle" x="598" y="23">:SM</text>
</g>
<g>
	<line stroke="black" stroke-dasharray="18,6"  stroke-opacity="1" x1="599" y1="46" x2="599" y2="769" />
</g>
<g>
	<rect fill="#808080" stroke="none" stroke-opacity="1" x="747" y="9" width="3" height="22" />
	<rect fill="#808080" stroke="none" stroke-opacity="1" x="694" y="28" width="56" height="3" />
	<rect fill="#ffffc0" stroke="black" stroke-width="1" stroke-opacity="1" x="690" y="5" width="57" height="23" />
	<text font-family="MS Shell Dlg" font-size="12" fill="#000000" xml:space="preserve" text-decoration="underline" text-anchor="middle" x="719" y="23">:Agence</text>
</g>
<g>
	<polygon fill="#ffffff" stroke="black" stroke-opacity="1" points="-230,48 -89,48 -89,59 -101,71 -230,71 -230,48" />
	<rect fill="none" stroke="black" stroke-width="1" stroke-opacity="1" x="-230" y="48" width="1079" height="69" />
	<text font-family="MS Shell Dlg" font-size="12" fill="#000000" xml:space="preserve" text-anchor="middle" x="310" y="94">SD07</text>
	<text font-family="MS Shell Dlg" font-size="12" fill="#000000" xml:space="preserve" text-anchor="middle" x="-165" y="66">consultation Agenda</text>
	<line stroke="black" stroke-opacity="1" x1="-230" y1="71" x2="-101" y2="71" />
	<line stroke="black" stroke-opacity="1" x1="-101" y1="71" x2="-89" y2="59" />
	<line stroke="black" stroke-opacity="1" x1="-89" y1="59" x2="-89" y2="48" />
</g>
<g>
	<rect fill="none" stroke="black" stroke-width="1" stroke-opacity="1" x="594" y="160" width="10" height="30" />
</g>
<g>
	<rect fill="none" stroke="black" stroke-width="1" stroke-opacity="1" x="379" y="317" width="10" height="38" />
</g>
<g>
	<rect fill="none" stroke="black" stroke-width="1" stroke-opacity="1" x="379" y="406" width="10" height="62" />
</g>
<g>
	<rect fill="none" stroke="black" stroke-width="1" stroke-opacity="1" x="715" y="174" width="10" height="28" />
</g>
<g>
	<rect fill="none" stroke="black" stroke-width="1" stroke-opacity="1" x="594" y="535" width="10" height="219" />
</g>
<g>
	<rect fill="none" stroke="black" stroke-width="1" stroke-opacity="1" x="796" y="615" width="10" height="32" />
</g>
<g>
	<rect fill="none" stroke="black" stroke-width="1" stroke-opacity="1" x="199" y="706" width="10" height="39" />
</g>
<g>
	<rect fill="none" stroke="black" stroke-width="1" stroke-opacity="1" x="379" y="256" width="10" height="39" />
</g>
<g>
	<rect fill="none" stroke="black" stroke-width="1" stroke-opacity="1" x="715" y="543" width="10" height="34" />
</g>
<g>
	<rect fill="none" stroke="black" stroke-width="1" stroke-opacity="1" x="379" y="153" width="10" height="56" />
</g>
<g>
	<rect fill="none" stroke="black" stroke-width="1" stroke-opacity="1" x="594" y="325" width="10" height="24" />
</g>
<g>
	<rect fill="none" stroke="black" stroke-width="1" stroke-opacity="1" x="594" y="442" width="10" height="60" />
</g>
<g>
	<rect fill="none" stroke="black" stroke-width="1" stroke-opacity="1" x="796" y="490" width="10" height="25" />
</g>
<g>
	<rect fill="none" stroke="black" stroke-width="1" stroke-opacity="1" x="199" y="137" width="10" height="365" />
</g>
<g>
	<line stroke="black" stroke-opacity="1" x1="210" y1="711" x2="594" y2="711" />
	<polygon fill="#000000" stroke="none" points="210,711 214,707 214,715" />
</g>
<g>
	<line stroke="black" stroke-opacity="1" x1="390" y1="331" x2="594" y2="331" />
	<polygon fill="#000000" stroke="none" points="594,331 590,327 590,335" />
</g>
<g>
	<text font-family="MS Shell Dlg" font-size="12" fill="#000000" xml:space="preserve" x="643" y="612">TempsLibreAgent</text>
</g>
<g>
	<text font-family="MS Shell Dlg" font-size="12" fill="#000000" xml:space="preserve" x="665" y="633">tempsLibre</text>
</g>
<g>
	<text font-family="MS Shell Dlg" font-size="12" fill="#000000" xml:space="preserve" x="602" y="540">TempsParContact</text>
</g>
<g>
	<text font-family="MS Shell Dlg" font-size="12" fill="#000000" xml:space="preserve" x="485" y="478">AffecterActivité ( Date début, Date fin, Activité activité, Agent x )</text>
</g>
<g>
	<text font-family="MS Shell Dlg" font-size="12" fill="#000000" xml:space="preserve" x="225" y="252">SélectionPlageLibre (Date début, Date fin)</text>
</g>
<g>
	<text font-family="MS Shell Dlg" font-size="12" fill="#000000" xml:space="preserve" x="220" y="405">ValidationPlanification</text>
</g>
<g>
	<text font-family="MS Shell Dlg" font-size="12" fill="#000000" xml:space="preserve" x="392" y="429">ValidPlanification et ClalculTempsLibreAgents</text>
</g>
<g>
	<text font-family="MS Shell Dlg" font-size="12" fill="#000000" xml:space="preserve" x="253" y="150">Planification</text>
</g>
<g>
	<text font-family="MS Shell Dlg" font-size="12" fill="#000000" xml:space="preserve" x="604" y="170">ConsultActivités</text>
</g>
<g>
	<text font-family="MS Shell Dlg" font-size="12" fill="#000000" xml:space="preserve" x="214" y="308">AffectationPlageÀActivité (Activité activité)</text>
</g>
<g>
	<text font-family="MS Shell Dlg" font-size="12" fill="#000000" xml:space="preserve" x="614" y="563">tempsContact</text>
</g>
<g>
	<text font-family="MS Shell Dlg" font-size="12" fill="#000000" xml:space="preserve" x="297" y="703">EnregistrerNbContacts(nbContacts)</text>
</g>
<g>
	<text font-family="MS Shell Dlg" font-size="12" fill="#000000" xml:space="preserve" x="238" y="175">ModePlanification</text>
</g>
<g>
	<text font-family="MS Shell Dlg" font-size="12" fill="#000000" xml:space="preserve" x="404" y="322">Planifier(Activité activité, Agent x, Date début, Date fin)</text>
</g>
<g>
	<text font-family="MS Shell Dlg" font-size="12" fill="#000000" xml:space="preserve" x="419" y="158">ConsultationListeActivités</text>
</g>
<g>
	<text font-family="MS Shell Dlg" font-size="12" fill="#000000" xml:space="preserve" x="635" y="667">calculerNbContacts</text>
</g>
<g>
	<line stroke="black" stroke-opacity="1" x1="390" y1="447" x2="594" y2="447" />
	<polygon fill="#000000" stroke="none" points="594,447 590,443 590,451" />
</g>
<g>
	<line stroke="black" stroke-opacity="1" x1="210" y1="159" x2="379" y2="159" />
	<polygon fill="#000000" stroke="none" points="379,159 375,155 375,163" />
</g>
	<text font-family="MS Shell Dlg" font-size="12" fill="#000000" xml:space="preserve" x="446" y="188">:listeActivités</text>
	<text font-family="MS Shell Dlg" font-size="12" fill="#000000" xml:space="preserve" x="613" y="197">:listeActivités</text>
<g>
	<line stroke="black" stroke-opacity="1" x1="210" y1="325" x2="379" y2="325" />
	<polygon fill="#000000" stroke="none" points="379,325 375,321 375,329" />
</g>
<g>
	<line stroke="black" stroke-opacity="1" x1="210" y1="414" x2="379" y2="414" />
	<polygon fill="#000000" stroke="none" points="379,414 375,410 375,418" />
</g>
<g>
	<path fill="none" stroke="black" stroke-opacity="1" d="M 606 672 L 623 672 L 623 679 L 606 679" />
	<polygon fill="#000000" stroke="none" points="606,679 610,683 610,675" />
</g>
<g>
	<line stroke="black" stroke-opacity="1" x1="210" y1="183" x2="379" y2="183" />
	<polygon fill="#000000" stroke="none" points="210,183 214,179 214,187" />
</g>
<g>
	<line stroke="black" stroke-opacity="1" x1="210" y1="267" x2="379" y2="267" />
	<polygon fill="#000000" stroke="none" points="379,267 375,263 375,271" />
</g>
<g>
	<line stroke-dasharray="4,4" stroke="black" stroke-opacity="1" x1="196" y1="280" x2="245" y2="272" />
</g>
<g>
	<line stroke="black" stroke-opacity="1" x1="605" y1="549" x2="715" y2="549" />
	<path fill="none" stroke="black" stroke-opacity="1" d="M 711 545 L 715 549 L 711 553" />
</g>
<g>
	<line stroke="black" stroke-opacity="1" stroke-dasharray="4,4" x1="605" y1="572" x2="715" y2="572" />
	<path fill="none" stroke="black" stroke-opacity="1" d="M 609 568 L 605 572 L 609 576" />
</g>
<g>
	<line stroke="black" stroke-opacity="1" x1="605" y1="496" x2="796" y2="496" />
	<polygon fill="#000000" stroke="none" points="796,496 792,492 792,500" />
</g>
<g>
	<line stroke="black" stroke-opacity="1" x1="390" y1="169" x2="594" y2="169" />
	<polygon fill="#000000" stroke="none" points="594,169 590,165 590,173" />
</g>
<g>
	<line stroke="black" stroke-opacity="1" x1="605" y1="621" x2="796" y2="621" />
	<polygon fill="#000000" stroke="none" points="796,621 792,617 792,625" />
</g>
<g>
	<line stroke="black" stroke-opacity="1" x1="605" y1="179" x2="715" y2="179" />
	<polygon fill="#000000" stroke="none" points="715,179 711,175 711,183" />
</g>
<g>
	<polygon fill="#ffffff" stroke="black" stroke-opacity="1" points="483,378 696,378 696,389 684,401 483,401 483,378" />
	<rect fill="none" stroke="black" stroke-width="1" stroke-opacity="1" x="483" y="378" width="369" height="142" />
	<text font-family="MS Shell Dlg" font-size="12" fill="#000000" xml:space="preserve" text-anchor="middle" x="584" y="396">Pour chaque affectation planifiée</text>
	<line stroke="black" stroke-opacity="1" x1="483" y1="401" x2="684" y2="401" />
	<line stroke="black" stroke-opacity="1" x1="684" y1="401" x2="696" y2="389" />
	<line stroke="black" stroke-opacity="1" x1="696" y1="389" x2="696" y2="378" />
</g>
<g>
	<line stroke="black" stroke-opacity="1" stroke-dasharray="4,4" x1="605" y1="642" x2="796" y2="642" />
	<path fill="none" stroke="black" stroke-opacity="1" d="M 609 638 L 605 642 L 609 646" />
</g>
<g>
	<polygon fill="#ffffff" stroke="black" stroke-opacity="1" points="439,587 570,587 570,598 558,610 439,610 439,587" />
	<rect fill="none" stroke="black" stroke-width="1" stroke-opacity="1" x="439" y="587" width="419" height="170" />
	<text font-family="MS Shell Dlg" font-size="12" fill="#000000" xml:space="preserve" text-anchor="middle" x="499" y="605">pour chaque agent</text>
	<line stroke="black" stroke-opacity="1" x1="439" y1="610" x2="558" y2="610" />
	<line stroke="black" stroke-opacity="1" x1="558" y1="610" x2="570" y2="598" />
	<line stroke="black" stroke-opacity="1" x1="570" y1="598" x2="570" y2="587" />
</g>
</svg>
