<?xml version="1.0" encoding="UTF-8" standalone="no"?>
<!-- Created with Bouml (http://bouml.free.fr/) -->
<!DOCTYPE svg PUBLIC "-//W3C//DTD SVG 1.1//EN" "http://www.w3.org/Graphics/SVG/1.1/DTD/svg11.dtd">
<svg width="922" height="1612" version="1.1" xmlns="http://www.w3.org/2000/svg">
<g>
	<polygon fill="#ffffff" stroke="black" stroke-opacity="1" points="2,581 35,581 35,592 23,604 2,604 2,581" />
	<rect fill="none" stroke="black" stroke-width="1" stroke-opacity="1" x="2" y="581" width="908" height="1019" />
	<text font-family="MS Shell Dlg" font-size="12" fill="#000000" xml:space="preserve" text-anchor="middle" x="13" y="599">alt</text>
	<line stroke="black" stroke-opacity="1" x1="2" y1="604" x2="23" y2="604" />
	<line stroke="black" stroke-opacity="1" x1="23" y1="604" x2="35" y2="592" />
	<line stroke="black" stroke-opacity="1" x1="35" y1="592" x2="35" y2="581" />
</g>
<g>
	<polygon fill="#ffffff" stroke="black" stroke-opacity="1" points="17,694 50,694 50,705 38,717 17,717 17,694" />
	<rect fill="none" stroke="black" stroke-width="1" stroke-opacity="1" x="17" y="694" width="860" height="813" />
	<text font-family="MS Shell Dlg" font-size="12" fill="#000000" xml:space="preserve" text-anchor="middle" x="28" y="712">alt</text>
	<line stroke="black" stroke-opacity="1" x1="17" y1="717" x2="38" y2="717" />
	<line stroke="black" stroke-opacity="1" x1="38" y1="717" x2="50" y2="705" />
	<line stroke="black" stroke-opacity="1" x1="50" y1="705" x2="50" y2="694" />
</g>
<g>
	<polygon fill="#ffffff" stroke="black" stroke-opacity="1" points="9,613 116,613 116,624 104,636 9,636 9,613" />
	<rect fill="none" stroke="black" stroke-width="1" stroke-opacity="1" x="9" y="613" width="883" height="909" />
	<text font-family="MS Shell Dlg" font-size="12" fill="#000000" xml:space="preserve" text-anchor="middle" x="57" y="631">Sélection RDV</text>
	<line stroke="black" stroke-opacity="1" x1="9" y1="636" x2="104" y2="636" />
	<line stroke="black" stroke-opacity="1" x1="104" y1="636" x2="116" y2="624" />
	<line stroke="black" stroke-opacity="1" x1="116" y1="624" x2="116" y2="613" />
</g>
<g>
	<polygon fill="#ffffff" stroke="black" stroke-opacity="1" points="23,1003 119,1003 119,1014 107,1026 23,1026 23,1003" />
	<rect fill="none" stroke="black" stroke-width="1" stroke-opacity="1" x="23" y="1003" width="836" height="134" />
	<text font-family="MS Shell Dlg" font-size="12" fill="#000000" xml:space="preserve" text-anchor="middle" x="65" y="1021">Annuler RDV</text>
	<line stroke="black" stroke-opacity="1" x1="23" y1="1026" x2="107" y2="1026" />
	<line stroke="black" stroke-opacity="1" x1="107" y1="1026" x2="119" y2="1014" />
	<line stroke="black" stroke-opacity="1" x1="119" y1="1014" x2="119" y2="1003" />
</g>
<g>
	<line stroke="black" stroke-dasharray="18,6"  stroke-opacity="1" x1="168" y1="47" x2="168" y2="1612" />
</g>
<g>
	<ellipse fill="none" stroke="black" stroke-width="1" stroke-opacity="1" cx="168" cy="9" rx="3" ry="3" />
	<line stroke="black" stroke-opacity="1" x1="163" y1="15" x2="174" y2="15" />
	<line stroke="black" stroke-opacity="1" x1="168" y1="12" x2="168" y2="20" />
	<line stroke="black" stroke-opacity="1" x1="168" y1="20" x2="163" y2="25" />
	<line stroke="black" stroke-opacity="1" x1="168" y1="20" x2="173" y2="25" />
	<text font-family="MS Shell Dlg" font-size="12" fill="#000000" xml:space="preserve" text-anchor="middle" x="169" y="42">:Agent</text>
</g>
<g>
	<rect fill="#808080" stroke="none" stroke-opacity="1" x="337" y="12" width="3" height="22" />
	<rect fill="#808080" stroke="none" stroke-opacity="1" x="296" y="31" width="44" height="3" />
	<rect fill="#ffffc0" stroke="black" stroke-width="1" stroke-opacity="1" x="292" y="8" width="45" height="23" />
	<text font-family="MS Shell Dlg" font-size="12" fill="#000000" xml:space="preserve" text-decoration="underline" text-anchor="middle" x="315" y="26">:IHM</text>
</g>
<g>
	<line stroke="black" stroke-dasharray="18,6"  stroke-opacity="1" x1="316" y1="49" x2="316" y2="1612" />
</g>
<g>
	<rect fill="#808080" stroke="none" stroke-opacity="1" x="501" y="13" width="3" height="22" />
	<rect fill="#808080" stroke="none" stroke-opacity="1" x="460" y="32" width="44" height="3" />
	<rect fill="#ffffc0" stroke="black" stroke-width="1" stroke-opacity="1" x="456" y="9" width="45" height="23" />
	<text font-family="MS Shell Dlg" font-size="12" fill="#000000" xml:space="preserve" text-decoration="underline" text-anchor="middle" x="479" y="27">:SM</text>
</g>
<g>
	<line stroke="black" stroke-dasharray="18,6"  stroke-opacity="1" x1="480" y1="50" x2="480" y2="1612" />
</g>
<g>
	<rect fill="#808080" stroke="none" stroke-opacity="1" x="695" y="8" width="3" height="22" />
	<rect fill="#808080" stroke="none" stroke-opacity="1" x="642" y="27" width="56" height="3" />
	<rect fill="#ffffc0" stroke="black" stroke-width="1" stroke-opacity="1" x="638" y="4" width="57" height="23" />
	<text font-family="MS Shell Dlg" font-size="12" fill="#000000" xml:space="preserve" text-decoration="underline" text-anchor="middle" x="667" y="22">:Agence</text>
</g>
<g>
	<line stroke="black" stroke-dasharray="18,6"  stroke-opacity="1" x1="668" y1="45" x2="668" y2="1612" />
</g>
<g>
	<rect fill="#808080" stroke="none" stroke-opacity="1" x="842" y="9" width="3" height="22" />
	<rect fill="#808080" stroke="none" stroke-opacity="1" x="788" y="28" width="57" height="3" />
	<rect fill="#ffffc0" stroke="black" stroke-width="1" stroke-opacity="1" x="784" y="5" width="58" height="23" />
	<text font-family="MS Shell Dlg" font-size="12" fill="#000000" xml:space="preserve" text-decoration="underline" text-anchor="middle" x="813" y="23">:Agenda</text>
</g>
<g>
	<line stroke="black" stroke-dasharray="18,6"  stroke-opacity="1" x1="815" y1="46" x2="815" y2="1612" />
</g>
<g>
	<polygon fill="#ffffff" stroke="black" stroke-opacity="1" points="176,420 307,420 307,431 295,443 176,443 176,420" />
	<rect fill="none" stroke="black" stroke-width="1" stroke-opacity="1" x="176" y="420" width="657" height="121" />
	<text font-family="MS Shell Dlg" font-size="12" fill="#000000" xml:space="preserve" text-anchor="middle" x="236" y="438">pour chaque agent</text>
	<line stroke="black" stroke-opacity="1" x1="176" y1="443" x2="295" y2="443" />
	<line stroke="black" stroke-opacity="1" x1="295" y1="443" x2="307" y2="431" />
	<line stroke="black" stroke-opacity="1" x1="307" y1="431" x2="307" y2="420" />
</g>
<g>
	<polygon fill="#ffffff" stroke="black" stroke-opacity="1" points="7,1530 149,1530 149,1541 137,1553 7,1553 7,1530" />
	<rect fill="none" stroke="black" stroke-width="1" stroke-opacity="1" x="7" y="1530" width="881" height="65" />
	<text font-family="MS Shell Dlg" font-size="12" fill="#000000" xml:space="preserve" text-anchor="middle" x="448" y="1576">SD06</text>
	<text font-family="MS Shell Dlg" font-size="12" fill="#000000" xml:space="preserve" text-anchor="middle" x="72" y="1548">Sélection plage libre</text>
	<line stroke="black" stroke-opacity="1" x1="7" y1="1553" x2="137" y2="1553" />
	<line stroke="black" stroke-opacity="1" x1="137" y1="1553" x2="149" y2="1541" />
	<line stroke="black" stroke-opacity="1" x1="149" y1="1541" x2="149" y2="1530" />
</g>
<g>
	<rect fill="none" stroke="black" stroke-width="1" stroke-opacity="1" x="163" y="777" width="10" height="106" />
</g>
<g>
	<rect fill="none" stroke="black" stroke-width="1" stroke-opacity="1" x="163" y="220" width="10" height="53" />
</g>
<g>
	<rect fill="none" stroke="black" stroke-width="1" stroke-opacity="1" x="311" y="221" width="10" height="43" />
</g>
<g>
	<rect fill="none" stroke="black" stroke-width="1" stroke-opacity="1" x="311" y="59" width="10" height="66" />
</g>
<g>
	<rect fill="none" stroke="black" stroke-width="1" stroke-opacity="1" x="663" y="70" width="10" height="42" />
</g>
<g>
	<rect fill="none" stroke="black" stroke-width="1" stroke-opacity="1" x="475" y="93" width="10" height="32" />
</g>
<g>
	<rect fill="none" stroke="black" stroke-width="1" stroke-opacity="1" x="475" y="238" width="10" height="24" />
</g>
<g>
	<rect fill="none" stroke="black" stroke-width="1" stroke-opacity="1" x="810" y="246" width="10" height="24" />
</g>
<g>
	<rect fill="none" stroke="black" stroke-width="1" stroke-opacity="1" x="163" y="373" width="10" height="39" />
</g>
<g>
	<rect fill="none" stroke="black" stroke-width="1" stroke-opacity="1" x="311" y="374" width="10" height="110" />
</g>
<g>
	<rect fill="none" stroke="black" stroke-width="1" stroke-opacity="1" x="475" y="471" width="10" height="46" />
</g>
<g>
	<rect fill="none" stroke="black" stroke-width="1" stroke-opacity="1" x="810" y="487" width="10" height="24" />
</g>
<g>
	<rect fill="none" stroke="black" stroke-width="1" stroke-opacity="1" x="311" y="777" width="10" height="58" />
</g>
<g>
	<rect fill="none" stroke="black" stroke-width="1" stroke-opacity="1" x="475" y="813" width="10" height="26" />
</g>
<g>
	<rect fill="none" stroke="black" stroke-width="1" stroke-opacity="1" x="810" y="825" width="10" height="24" />
</g>
<g>
	<rect fill="none" stroke="black" stroke-width="1" stroke-opacity="1" x="475" y="59" width="10" height="46" />
</g>
<g>
	<rect fill="none" stroke="black" stroke-width="1" stroke-opacity="1" x="311" y="868" width="10" height="24" />
</g>
<g>
	<rect fill="none" stroke="black" stroke-width="1" stroke-opacity="1" x="163" y="641" width="10" height="29" />
</g>
<g>
	<rect fill="none" stroke="black" stroke-width="1" stroke-opacity="1" x="311" y="641" width="10" height="24" />
</g>
<g>
	<rect fill="none" stroke="black" stroke-width="1" stroke-opacity="1" x="475" y="878" width="10" height="102" />
</g>
<g>
	<rect fill="none" stroke="black" stroke-width="1" stroke-opacity="1" x="810" y="894" width="10" height="24" />
</g>
<g>
	<rect fill="none" stroke="black" stroke-width="1" stroke-opacity="1" x="810" y="922" width="10" height="24" />
</g>
<g>
	<rect fill="none" stroke="black" stroke-width="1" stroke-opacity="1" x="810" y="945" width="10" height="24" />
</g>
<g>
	<rect fill="none" stroke="black" stroke-width="1" stroke-opacity="1" x="163" y="1033" width="10" height="39" />
</g>
<g>
	<rect fill="none" stroke="black" stroke-width="1" stroke-opacity="1" x="311" y="1033" width="10" height="24" />
</g>
<g>
	<rect fill="none" stroke="black" stroke-width="1" stroke-opacity="1" x="475" y="1045" width="10" height="53" />
</g>
<g>
	<rect fill="none" stroke="black" stroke-width="1" stroke-opacity="1" x="663" y="1050" width="10" height="70" />
</g>
<g>
	<rect fill="none" stroke="black" stroke-width="1" stroke-opacity="1" x="163" y="1196" width="10" height="55" />
</g>
<g>
	<rect fill="none" stroke="black" stroke-width="1" stroke-opacity="1" x="311" y="1196" width="10" height="24" />
</g>
<g>
	<rect fill="none" stroke="black" stroke-width="1" stroke-opacity="1" x="311" y="1241" width="10" height="55" />
</g>
<g>
	<rect fill="none" stroke="black" stroke-width="1" stroke-opacity="1" x="475" y="1286" width="10" height="114" />
</g>
<g>
	<rect fill="none" stroke="black" stroke-width="1" stroke-opacity="1" x="810" y="1299" width="10" height="24" />
</g>
<g>
	<rect fill="none" stroke="black" stroke-width="1" stroke-opacity="1" x="810" y="1343" width="10" height="24" />
</g>
<g>
	<rect fill="none" stroke="black" stroke-width="1" stroke-opacity="1" x="810" y="1384" width="10" height="24" />
</g>
<g>
	<line stroke="black" stroke-opacity="1" x1="174" y1="226" x2="311" y2="226" />
	<polygon fill="#000000" stroke="none" points="311,226 307,222 307,230" />
</g>
<g>
	<line stroke="black" stroke-opacity="1" x1="486" y1="76" x2="663" y2="76" />
	<polygon fill="#000000" stroke="none" points="663,76 659,72 659,80" />
</g>
<g>
	<line stroke="black" stroke-opacity="1" x1="322" y1="65" x2="475" y2="65" />
	<polygon fill="#000000" stroke="none" points="475,65 471,61 471,69" />
</g>
<g>
	<line stroke="black" stroke-opacity="1" stroke-dasharray="4,4" x1="486" y1="106" x2="663" y2="106" />
	<path fill="none" stroke="black" stroke-opacity="1" d="M 490 102 L 486 106 L 490 110" />
</g>
<g>
	<line stroke="black" stroke-opacity="1" stroke-dasharray="4,4" x1="322" y1="120" x2="475" y2="120" />
	<path fill="none" stroke="black" stroke-opacity="1" d="M 326 116 L 322 120 L 326 124" />
</g>
<g>
	<line stroke="black" stroke-opacity="1" x1="322" y1="243" x2="475" y2="243" />
	<polygon fill="#000000" stroke="none" points="475,243 471,239 471,247" />
</g>
<g>
	<line stroke="black" stroke-opacity="1" x1="486" y1="251" x2="810" y2="251" />
	<polygon fill="#000000" stroke="none" points="810,251 806,247 806,255" />
</g>
<g>
	<line stroke="black" stroke-opacity="1" x1="174" y1="379" x2="311" y2="379" />
	<polygon fill="#000000" stroke="none" points="311,379 307,375 307,383" />
</g>
<g>
	<line stroke="black" stroke-opacity="1" x1="486" y1="492" x2="810" y2="492" />
	<polygon fill="#000000" stroke="none" points="810,492 806,488 806,496" />
</g>
<g>
	<line stroke="black" stroke-opacity="1" x1="174" y1="783" x2="311" y2="783" />
	<polygon fill="#000000" stroke="none" points="311,783 307,779 307,787" />
</g>
<g>
	<line stroke="black" stroke-opacity="1" x1="322" y1="820" x2="475" y2="820" />
	<polygon fill="#000000" stroke="none" points="475,820 471,816 471,824" />
</g>
<g>
	<line stroke="black" stroke-opacity="1" x1="486" y1="830" x2="810" y2="830" />
	<polygon fill="#000000" stroke="none" points="810,830 806,826 806,834" />
</g>
<g>
	<line stroke="black" stroke-opacity="1" x1="174" y1="646" x2="311" y2="646" />
	<polygon fill="#000000" stroke="none" points="311,646 307,642 307,650" />
</g>
<g>
	<line stroke="black" stroke-opacity="1" x1="322" y1="886" x2="475" y2="886" />
	<polygon fill="#000000" stroke="none" points="475,886 471,882 471,890" />
</g>
<g>
	<line stroke="black" stroke-opacity="1" x1="486" y1="904" x2="810" y2="904" />
	<polygon fill="#000000" stroke="none" points="810,904 806,900 806,908" />
</g>
<g>
	<line stroke="black" stroke-opacity="1" x1="486" y1="930" x2="810" y2="930" />
	<polygon fill="#000000" stroke="none" points="810,930 806,926 806,934" />
</g>
<g>
	<line stroke="black" stroke-opacity="1" x1="486" y1="961" x2="810" y2="961" />
	<polygon fill="#000000" stroke="none" points="810,961 806,957 806,965" />
</g>
<g>
	<line stroke="black" stroke-opacity="1" x1="174" y1="1038" x2="311" y2="1038" />
	<polygon fill="#000000" stroke="none" points="311,1038 307,1034 307,1042" />
</g>
<g>
	<line stroke="black" stroke-opacity="1" x1="322" y1="1050" x2="475" y2="1050" />
	<polygon fill="#000000" stroke="none" points="475,1050 471,1046 471,1054" />
</g>
<g>
	<line stroke="black" stroke-opacity="1" x1="486" y1="1057" x2="663" y2="1057" />
	<polygon fill="#000000" stroke="none" points="663,1057 659,1053 659,1061" />
</g>
<g>
	<line stroke="black" stroke-opacity="1" x1="174" y1="1201" x2="311" y2="1201" />
	<polygon fill="#000000" stroke="none" points="311,1201 307,1197 307,1205" />
</g>
<g>
	<line stroke="black" stroke-opacity="1" x1="174" y1="1246" x2="311" y2="1246" />
	<polygon fill="#000000" stroke="none" points="311,1246 307,1242 307,1250" />
</g>
<g>
	<line stroke="black" stroke-opacity="1" x1="322" y1="1291" x2="475" y2="1291" />
	<polygon fill="#000000" stroke="none" points="475,1291 471,1287 471,1295" />
</g>
<g>
	<line stroke="black" stroke-opacity="1" x1="486" y1="1306" x2="810" y2="1306" />
	<polygon fill="#000000" stroke="none" points="810,1306 806,1302 806,1310" />
</g>
<g>
	<line stroke="black" stroke-opacity="1" x1="486" y1="1349" x2="810" y2="1349" />
	<polygon fill="#000000" stroke="none" points="810,1349 806,1345 806,1353" />
</g>
<g>
	<line stroke="black" stroke-opacity="1" x1="486" y1="1389" x2="810" y2="1389" />
	<polygon fill="#000000" stroke="none" points="810,1389 806,1385 806,1393" />
</g>
<g>
	<line stroke="black" stroke-opacity="1" x1="174" y1="259" x2="311" y2="259" />
	<polygon fill="#000000" stroke="none" points="174,259 178,255 178,263" />
</g>
	<text font-family="MS Shell Dlg" font-size="12" fill="#000000" xml:space="preserve" x="359" y="499">: AgendaAgent x</text>
	<text font-family="MS Shell Dlg" font-size="12" fill="#000000" xml:space="preserve" x="553" y="272">: AgendaAgent x</text>
	<text font-family="MS Shell Dlg" font-size="12" fill="#000000" xml:space="preserve" x="609" y="849">: listeAgentsDispos</text>
	<text font-family="MS Shell Dlg" font-size="12" fill="#000000" xml:space="preserve" x="564" y="513">: AgendaAgent x</text>
<g>
	<line stroke="black" stroke-opacity="1" x1="174" y1="878" x2="311" y2="878" />
	<polygon fill="#000000" stroke="none" points="311,878 307,874 307,882" />
</g>
	<text font-family="MS Shell Dlg" font-size="12" fill="#000000" xml:space="preserve" x="357" y="265">: AgendaAgent x</text>
<g>
	<line stroke="black" stroke-opacity="1" x1="174" y1="812" x2="311" y2="812" />
	<polygon fill="#000000" stroke="none" points="311,812 307,808 307,816" />
</g>
	<text font-family="MS Shell Dlg" font-size="12" fill="#000000" xml:space="preserve" x="346" y="839">: listeAgentsDispos</text>
<g>
	<line stroke="black" stroke-opacity="1" x1="486" y1="1092" x2="663" y2="1092" />
	<polygon fill="#000000" stroke="none" points="663,1092 659,1088 659,1096" />
</g>
<g>
	<text font-family="MS Shell Dlg" font-size="12" fill="#000000" xml:space="preserve" x="38" y="806">SélectionnerPlageLibre   (Date début, Date fin)</text>
</g>
<g>
	<text font-family="MS Shell Dlg" font-size="12" fill="#000000" xml:space="preserve" x="95" y="205">ConsulterVueAutreAgent (Agent x, Date début, Date fin)</text>
</g>
<g>
	<text font-family="MS Shell Dlg" font-size="12" fill="#000000" xml:space="preserve" x="360" y="56">ListeAgents</text>
</g>
<g>
	<text font-family="MS Shell Dlg" font-size="12" fill="#000000" xml:space="preserve" x="510" y="67">ChercherListeAgent</text>
</g>
<g>
	<text font-family="MS Shell Dlg" font-size="12" fill="#000000" xml:space="preserve" x="541" y="131">&lt;&lt;list&gt;&gt;</text>
</g>
<g>
	<text font-family="MS Shell Dlg" font-size="12" fill="#000000" xml:space="preserve" x="551" y="97">agents</text>
</g>
<g>
	<text font-family="MS Shell Dlg" font-size="12" fill="#000000" xml:space="preserve" x="366" y="145">&lt;&lt;list&gt;&gt;</text>
</g>
<g>
	<text font-family="MS Shell Dlg" font-size="12" fill="#000000" xml:space="preserve" x="376" y="111">agents</text>
</g>
<g>
	<text font-family="MS Shell Dlg" font-size="12" fill="#000000" xml:space="preserve" x="325" y="225">RécupérerAgendaAgent (Agent x, Date début, Date fin)</text>
</g>
<g>
	<text font-family="MS Shell Dlg" font-size="12" fill="#000000" xml:space="preserve" x="543" y="244">AgendaAgent (Agent x, Date début, Date fin)</text>
</g>
<g>
	<text font-family="MS Shell Dlg" font-size="12" fill="#000000" xml:space="preserve" x="168" y="360">ConsulterVueQuotidienne</text>
</g>
<g>
	<text font-family="MS Shell Dlg" font-size="12" fill="#000000" xml:space="preserve" x="324" y="461">RécupérerAgendaAgent (Agent x, Date d)</text>
</g>
<g>
	<text font-family="MS Shell Dlg" font-size="12" fill="#000000" xml:space="preserve" x="593" y="482">AgendaAgent (Agent x, Date d)</text>
</g>
<g>
	<text font-family="MS Shell Dlg" font-size="12" fill="#000000" xml:space="preserve" x="192" y="774">RéaffecterRDV</text>
</g>
<g>
	<text font-family="MS Shell Dlg" font-size="12" fill="#000000" xml:space="preserve" x="329" y="808">ListeAgentsDipos (Date début, Date fin)</text>
</g>
<g>
	<text font-family="MS Shell Dlg" font-size="12" fill="#000000" xml:space="preserve" x="547" y="822">AgentsDispos (Date début, Date fin)</text>
</g>
<g>
	<text font-family="MS Shell Dlg" font-size="12" fill="#000000" xml:space="preserve" x="200" y="871">ChoixAgent</text>
</g>
<g>
	<text font-family="MS Shell Dlg" font-size="12" fill="#000000" xml:space="preserve" x="189" y="637">SélectionnerRDV</text>
</g>
<g>
	<text font-family="MS Shell Dlg" font-size="12" fill="#000000" xml:space="preserve" x="323" y="867">Réaffectation (RDV rdv, Agent nouveau)</text>
</g>
<g>
	<text font-family="MS Shell Dlg" font-size="12" fill="#000000" xml:space="preserve" x="499" y="889">AffecterActivité (&quot;Contact commercial&quot;, Agent nouveau, debut, fin)</text>
</g>
<g>
	<text font-family="MS Shell Dlg" font-size="12" fill="#000000" xml:space="preserve" x="503" y="921">AffecterActivité (&quot;Libre&quot;, rdv.agent, rdv.debut, rdv.fin)</text>
</g>
<g>
	<text font-family="MS Shell Dlg" font-size="12" fill="#000000" xml:space="preserve" x="566" y="952">ReaffRDV (rdv, nouveau)</text>
</g>
<g>
	<text font-family="MS Shell Dlg" font-size="12" fill="#000000" xml:space="preserve" x="170" y="1029">AnnulerRDV (RDV rdv)</text>
</g>
<g>
	<text font-family="MS Shell Dlg" font-size="12" fill="#000000" xml:space="preserve" x="325" y="1041">AnnulerRDV (RDV rdv)</text>
</g>
<g>
	<text font-family="MS Shell Dlg" font-size="12" fill="#000000" xml:space="preserve" x="497" y="1041">AffecterActivité (&quot;Libre&quot;, rdv.agent, rdv.debut, rdv.fin)</text>
</g>
<g>
	<text font-family="MS Shell Dlg" font-size="12" fill="#000000" xml:space="preserve" x="512" y="1083">SupprimerRDV (rdv)</text>
</g>
<g>
	<text font-family="MS Shell Dlg" font-size="12" fill="#000000" xml:space="preserve" x="193" y="1192">ModifierDate</text>
</g>
<g>
	<text font-family="MS Shell Dlg" font-size="12" fill="#000000" xml:space="preserve" x="181" y="1234">SélectionnerPlageLibre (Date début, Date fin)</text>
</g>
<g>
	<text font-family="MS Shell Dlg" font-size="12" fill="#000000" xml:space="preserve" x="329" y="1274">ModifierDateRDV (RDV rdv, Date début, Date fin)</text>
</g>
<g>
	<text font-family="MS Shell Dlg" font-size="12" fill="#000000" xml:space="preserve" x="497" y="1294">AffecterActivité (&quot;Contact commercial&quot;, AgentX, debut, fin)</text>
</g>
<g>
	<text font-family="MS Shell Dlg" font-size="12" fill="#000000" xml:space="preserve" x="493" y="1337">AffecterActivité (&quot;Libre&quot;, AgentX, rdv.debut, rdv.fin)</text>
</g>
<g>
	<text font-family="MS Shell Dlg" font-size="12" fill="#000000" xml:space="preserve" x="537" y="1380">ModifierHoraire (rdv, debut, fin)</text>
</g>
<g>
	<text font-family="MS Shell Dlg" font-size="12" fill="#000000" xml:space="preserve" x="197" y="251">VueAutreAgent</text>
</g>
<g>
	<polygon fill="#ffffff" stroke="black" stroke-opacity="1" points="3,148 173,148 173,159 161,171 3,171 3,148" />
	<rect fill="none" stroke="black" stroke-width="1" stroke-opacity="1" x="3" y="148" width="897" height="149" />
	<text font-family="MS Shell Dlg" font-size="12" fill="#000000" xml:space="preserve" text-anchor="middle" x="82" y="166">Consulter vue autre agent</text>
	<line stroke="black" stroke-opacity="1" x1="3" y1="171" x2="161" y2="171" />
	<line stroke="black" stroke-opacity="1" x1="161" y1="171" x2="173" y2="159" />
	<line stroke="black" stroke-opacity="1" x1="173" y1="159" x2="173" y2="148" />
</g>
<g>
	<polygon fill="#ffffff" stroke="black" stroke-opacity="1" points="22,725 264,725 264,736 252,748 22,748 22,725" />
	<rect fill="none" stroke="black" stroke-width="1" stroke-opacity="1" x="22" y="725" width="836" height="263" />
	<text font-family="MS Shell Dlg" font-size="12" fill="#000000" xml:space="preserve" text-anchor="middle" x="137" y="743">réaffecter RDV à un autre agent dispo</text>
	<line stroke="black" stroke-opacity="1" x1="22" y1="748" x2="252" y2="748" />
	<line stroke="black" stroke-opacity="1" x1="252" y1="748" x2="264" y2="736" />
	<line stroke="black" stroke-opacity="1" x1="264" y1="736" x2="264" y2="725" />
</g>
<g>
	<polygon fill="#ffffff" stroke="black" stroke-opacity="1" points="24,1150 227,1150 227,1161 215,1173 24,1173 24,1150" />
	<rect fill="none" stroke="black" stroke-width="1" stroke-opacity="1" x="24" y="1150" width="841" height="291" />
	<text font-family="MS Shell Dlg" font-size="12" fill="#000000" xml:space="preserve" text-anchor="middle" x="120" y="1168">Modification date/horraire RDV</text>
	<line stroke="black" stroke-opacity="1" x1="24" y1="1173" x2="215" y2="1173" />
	<line stroke="black" stroke-opacity="1" x1="215" y1="1173" x2="227" y2="1161" />
	<line stroke="black" stroke-opacity="1" x1="227" y1="1161" x2="227" y2="1150" />
</g>
<g>
	<line stroke="black" stroke-opacity="1" x1="322" y1="479" x2="475" y2="479" />
	<polygon fill="#000000" stroke="none" points="475,479 471,475 471,483" />
</g>
<g>
	<polygon fill="#ffffff" stroke="black" stroke-opacity="1" points="3,311 176,311 176,322 164,334 3,334 3,311" />
	<rect fill="none" stroke="black" stroke-width="1" stroke-opacity="1" x="3" y="311" width="897" height="252" />
	<text font-family="MS Shell Dlg" font-size="12" fill="#000000" xml:space="preserve" text-anchor="middle" x="84" y="329">Consulter vue quotidienne</text>
	<line stroke="black" stroke-opacity="1" x1="3" y1="334" x2="164" y2="334" />
	<line stroke="black" stroke-opacity="1" x1="164" y1="334" x2="176" y2="322" />
	<line stroke="black" stroke-opacity="1" x1="176" y1="322" x2="176" y2="311" />
</g>
</svg>
